<?xml version="1.0" encoding="UTF-8"?>
<svg xmlns="http://www.w3.org/2000/svg" width="367" height="81" viewBox="0 0 367 81" fill="none">
  <mask id="mask0_1558_1372" style="mask-type:luminance" maskUnits="userSpaceOnUse" x="0" y="0" width="367" height="81">
    <path d="M367 0H0V81H367V0Z" fill="white"></path>
  </mask>
  <g mask="url(#mask0_1558_1372)">
    <path fill-rule="evenodd" clip-rule="evenodd" d="M28.338 66.0167C29.6421 66.0167 30.9101 66.0167 32.1783 66.0167C33.5954 66.0167 33.5954 66.0167 33.5954 61.3627C33.5954 47.6421 33.5861 33.9209 33.606 20.2001C33.6087 18.3925 33.4657 17.773 32.9072 17.8242C31.5406 17.951 30.172 17.8878 28.8045 17.8513C28.4697 17.8424 28.282 18.0145 28.2832 19.385C28.2957 34.5671 28.2917 49.7484 28.2938 64.9305C28.2938 65.1772 28.3129 65.4244 28.338 66.0167Z" fill="white"></path>
    <path fill-rule="evenodd" clip-rule="evenodd" d="M19.9415 66.0167C21.2457 66.0167 22.5136 66.0167 23.782 66.0167C25.1989 66.0167 25.1989 66.0167 25.1989 61.3627C25.1989 47.6421 25.1897 33.9209 25.2095 20.2001C25.2122 18.3925 25.0692 17.773 24.5107 17.8242C23.1442 17.951 21.7756 17.8878 20.408 17.8513C20.0732 17.8424 19.8855 18.0145 19.8867 19.385C19.8992 34.5671 19.8953 49.7484 19.8973 64.9305C19.8973 65.1772 19.9163 65.4244 19.9415 66.0167Z" fill="white"></path>
    <path fill-rule="evenodd" clip-rule="evenodd" d="M239.799 38.938C239.507 38.4304 239.202 37.93 238.924 37.4147C236.268 32.4668 233.589 27.5305 230.983 22.556C230.417 21.4776 229.731 21.0648 228.52 21.0811C223.887 21.145 219.252 21.1529 214.62 21.0779C213.285 21.056 212.945 21.5108 212.95 22.805C212.989 35.7371 212.994 48.6684 212.945 61.5999C212.94 62.998 213.355 63.41 214.723 63.3821C218.692 63.2991 222.666 63.2958 226.636 63.3821C228.059 63.4127 228.404 62.881 228.386 61.5412C228.323 56.8601 228.361 52.1776 228.361 47.4952C228.361 46.9133 228.361 46.3314 228.361 45.7492C228.505 45.7139 228.649 45.6794 228.794 45.6441C229.09 46.1405 229.402 46.6271 229.678 47.1341C232.332 52.0203 235.006 56.8953 237.604 61.811C238.194 62.9273 238.868 63.4095 240.173 63.3858C244.805 63.301 249.44 63.3154 254.074 63.3774C255.292 63.3937 255.688 63.0415 255.684 61.7755C255.643 48.7325 255.648 35.6893 255.678 22.6462C255.681 21.5108 255.373 21.0687 254.189 21.0849C250.053 21.1432 245.914 21.1484 241.778 21.0825C240.491 21.0621 240.2 21.5912 240.212 22.769C240.257 27.5617 240.231 32.3559 240.231 37.1494C240.231 37.6994 240.231 38.2495 240.231 38.8001C240.086 38.8458 239.943 38.8914 239.799 38.938Z" fill="white"></path>
    <path fill-rule="evenodd" clip-rule="evenodd" d="M184.279 20.6631C175.604 20.938 168.628 23.5934 164.005 30.6759C156.675 41.9011 161.37 56.8838 173.802 61.766C182.668 65.2483 191.398 64.6482 199.045 58.6912C211.898 48.679 208.746 28.5758 193.564 22.5601C192.134 21.9936 190.636 21.543 189.129 21.2542C187.351 20.9132 185.529 20.8069 184.279 20.6631ZM190.269 42.2389C190.265 46.057 187.459 48.9436 183.751 48.9429C180.023 48.9424 177.265 46.0785 177.27 42.2138C177.276 38.3585 180.049 35.4966 183.776 35.5026C187.473 35.5077 190.272 38.4114 190.269 42.2389Z" fill="white"></path>
    <path fill-rule="evenodd" clip-rule="evenodd" d="M12.0556 62.9055C12.9221 63.0422 13.6204 63.2525 14.3173 63.2459C21.5342 63.1811 28.7621 63.2996 35.9598 62.8827C38.7862 62.7187 41.6661 61.6166 44.3021 60.4402C48.1785 58.7111 50.1085 55.4162 50.0373 51.0911C49.9624 46.5381 47.4174 43.6924 43.5112 41.8845C42.6858 41.5023 41.8153 41.2201 40.6697 40.7778C41.7095 40.3525 42.423 40.0859 43.1175 39.7737C49.0849 37.0897 50.1047 29.6603 45.1105 25.3609C42.4461 23.0665 39.2498 21.7851 35.889 21.6152C28.2996 21.2323 20.69 21.2611 13.0888 21.105C12.132 21.0847 12.0425 21.642 12.0492 22.3938C12.0674 24.6788 12.0556 26.9632 12.0556 29.2475C12.0552 39.7791 12.0556 50.311 12.0556 60.842C12.0556 61.4986 12.0556 62.1544 12.0556 62.9055ZM27.4481 49.7343C27.4998 46.544 26.9924 46.6949 29.3403 46.6773C32.1139 46.6564 33.3823 47.633 33.3493 49.696C33.3163 51.7104 32.0339 52.6139 29.2162 52.6059C27.449 52.6007 27.449 52.6007 27.4481 49.7343ZM27.5698 31.5249C29.4138 31.5209 31.2986 31.035 32.4266 32.8582C32.7588 33.3957 32.6657 34.593 32.2781 35.1215C31.0838 36.75 29.2918 36.2607 27.5696 36.2256C27.5697 34.5924 27.5698 33.1291 27.5698 31.5249Z" fill="white"></path>
    <path fill-rule="evenodd" clip-rule="evenodd" d="M118.545 63.3408C123.441 63.3408 128.177 63.348 132.912 63.3349C134.026 63.3324 133.853 62.4525 133.855 61.7555C133.868 58.3561 133.857 54.9565 133.867 51.5571C133.867 51.0246 133.922 50.4916 134.314 49.794C134.617 50.2447 134.964 50.6725 135.216 51.1507C137.106 54.7416 139.007 58.3266 140.836 61.9494C141.348 62.9644 141.95 63.3983 143.126 63.3812C147.978 63.3126 152.831 63.3557 157.684 63.3493C158.11 63.3485 158.535 63.2898 159.319 63.2318C155.942 57.8335 152.694 52.6422 149.598 47.6926C150.896 45.849 152.312 44.3153 153.187 42.513C157.27 34.1059 153.544 25.201 144.732 22.4507C142.187 21.6564 139.444 21.2585 136.776 21.1665C131.212 20.9745 125.637 21.1333 120.068 21.0862C118.907 21.0758 118.408 21.3206 118.412 22.6427C118.457 35.7388 118.439 48.8349 118.443 61.931C118.443 62.3127 118.496 62.6936 118.545 63.3408ZM135.285 38.9197C134.285 39.1142 133.734 38.6425 133.842 37.2741C133.942 36.0068 133.801 34.72 133.9 33.4519C133.933 33.0339 134.336 32.3482 134.648 32.2991C136.11 32.0686 137.688 32.2142 138.45 33.6135C138.941 34.5148 139.095 35.869 138.828 36.8639C138.433 38.3414 137.034 38.8346 135.285 38.9197Z" fill="white"></path>
    <path fill-rule="evenodd" clip-rule="evenodd" d="M315.815 46.0129C313.141 47.7185 310.656 49.0876 307.61 48.9616C303.629 48.797 300.892 46.0984 300.913 42.1935C300.933 38.3578 303.604 35.6795 307.512 35.4931C309.999 35.375 312.156 36.2784 314.237 37.4927C314.705 37.7665 315.165 38.0524 315.804 38.4386C317.1 36.4163 318.35 34.4683 319.596 32.5163C320.403 31.2517 321.127 29.9238 322.029 28.7327C322.882 27.6058 322.582 26.9025 321.6 26.0985C316.39 21.8275 310.393 20.2577 303.807 20.8333C294.056 21.6857 285.879 29.2914 284.52 38.6764C282.625 51.7653 291.782 63.0322 304.861 63.6926C310.925 63.9985 316.427 62.4523 321.277 58.6583C322.533 57.6758 322.884 56.8677 321.845 55.3842C319.747 52.3919 317.872 49.2405 315.815 46.0129Z" fill="white"></path>
    <path fill-rule="evenodd" clip-rule="evenodd" d="M354.129 36.2136C355.942 33.3525 357.679 30.7101 359.265 27.9769C359.461 27.6392 359.012 26.6241 358.582 26.2562C353.27 21.7104 347.12 19.9944 340.248 21.0002C335.404 21.7092 331.241 23.7316 328.546 28.0324C325.252 33.2883 326.428 39.8763 331.469 43.479C333.685 45.0624 336.338 46.0273 338.808 47.2402C339.749 47.7022 340.778 47.9949 341.68 48.5187C342.137 48.7846 342.737 49.4528 342.671 49.8316C342.577 50.3674 341.987 51.1225 341.501 51.2159C340.393 51.4301 339.138 51.5726 338.088 51.2551C335.429 50.4523 332.851 49.3797 329.967 48.3149C328.454 50.7044 326.705 53.3938 325.075 56.153C324.906 56.4385 325.309 57.2819 325.669 57.6393C328.68 60.6382 332.453 62.2249 336.493 63.061C342.173 64.2362 347.804 64.2096 353.076 61.2634C356.291 59.4664 358.695 56.9227 359.663 53.2645C361.131 47.7085 358.618 42.3822 353.125 39.5322C350.826 38.3394 348.362 37.473 345.998 36.4011C345.144 36.0132 343.854 35.7961 344.13 34.4506C344.429 32.9926 345.77 32.7051 346.897 33.02C348.835 33.5614 350.692 34.4061 352.563 35.1753C353.055 35.3776 353.471 35.77 354.129 36.2136Z" fill="white"></path>
    <path fill-rule="evenodd" clip-rule="evenodd" d="M102.369 63.2527C102.369 62.5061 102.369 61.8547 102.369 61.2036C102.37 53.0668 102.4 44.9302 102.342 36.794C102.331 35.3117 102.673 34.7005 104.268 34.7787C106.908 34.9096 109.561 34.7867 112.208 34.8272C113.201 34.8421 113.731 34.633 113.712 33.454C113.654 29.7768 113.665 26.098 113.708 22.4203C113.72 21.3686 113.286 21.0942 112.325 21.0956C100.524 21.1156 88.7221 21.1163 76.9201 21.0947C75.9126 21.0929 75.5636 21.4776 75.5725 22.4745C75.6063 26.1522 75.6099 29.8311 75.5705 33.5083C75.5595 34.5722 76.0349 34.8362 76.9786 34.8251C79.7361 34.7919 82.4954 34.8756 85.2507 34.7879C86.5561 34.7469 86.9419 35.1599 86.933 36.4904C86.8761 44.8492 86.931 53.2087 86.8773 61.568C86.8696 62.913 87.1892 63.4173 88.6103 63.3846C92.6339 63.2932 96.6608 63.3553 100.687 63.3487C101.171 63.348 101.655 63.2949 102.369 63.2527Z" fill="white"></path>
    <path fill-rule="evenodd" clip-rule="evenodd" d="M55.5771 63.3525C59.3635 63.3525 63.0452 63.3525 66.7276 63.3525C70.8419 63.3525 70.8419 63.3525 70.8419 59.2693C70.8419 47.2314 70.8146 35.1929 70.8728 23.1549C70.8806 21.569 70.4654 21.0256 68.8438 21.0704C64.8758 21.1817 60.9024 21.1262 56.9319 21.0942C55.9593 21.0863 55.4144 21.2373 55.418 22.4398C55.4543 35.7599 55.4429 49.0792 55.4487 62.3994C55.4486 62.6158 55.5047 62.8326 55.5771 63.3525Z" fill="white"></path>
    <path fill-rule="evenodd" clip-rule="evenodd" d="M262.909 63.3451C267.869 63.3451 272.545 63.37 277.22 63.2961C277.582 63.2908 278.243 62.5972 278.245 62.2208C278.299 48.9054 278.301 35.5892 278.241 22.2734C278.239 21.8842 277.496 21.1696 277.088 21.1618C272.734 21.0801 268.378 21.1304 264.023 21.0997C262.657 21.09 262.916 22.0419 262.915 22.8313C262.905 29.8511 262.909 36.8716 262.909 43.8915C262.909 49.686 262.909 55.4802 262.909 61.2749C262.909 61.8775 262.909 62.4803 262.909 63.3451Z" fill="white"></path>
    <path fill-rule="evenodd" clip-rule="evenodd" d="M27.4488 49.7347C27.4496 52.6011 27.4496 52.6011 29.2169 52.6062C32.0345 52.6142 33.3169 51.7106 33.3499 49.6962C33.3829 47.6333 32.1145 46.6567 29.3409 46.6776C26.993 46.6953 27.5004 46.5443 27.4488 49.7347Z" fill="white"></path>
    <path fill-rule="evenodd" clip-rule="evenodd" d="M27.5703 31.525C27.5703 33.1292 27.5703 34.5925 27.5703 36.2257C29.2925 36.2607 31.0844 36.7501 32.2787 35.1216C32.6663 34.5932 32.7594 33.3959 32.4272 32.8584C31.2991 31.035 29.4143 31.521 27.5703 31.525Z" fill="white"></path>
    <path fill-rule="evenodd" clip-rule="evenodd" d="M24.6339 51.8103C24.6343 53.4547 24.6193 55.0994 24.6435 56.7435C24.6509 57.218 24.7005 57.7157 24.8541 58.1592C25.1547 59.0278 26.0582 59.2837 26.7656 58.7146C27.1059 58.441 27.4109 58.0945 27.6518 57.7269C30.9813 52.6471 34.2986 47.5593 37.6118 42.4686C37.8267 42.1386 38.0355 41.787 38.1568 41.415C38.6134 40.0171 37.8311 38.7515 36.3797 38.5952C35.5343 38.5045 34.6751 38.5388 33.822 38.5309C32.7876 38.5217 31.753 38.5279 30.7184 38.5263C30.0537 38.5249 30.0523 38.5241 30.0521 37.8295C30.0513 34.7067 30.0537 31.5836 30.0487 28.4606C30.0481 28.0798 30.0285 27.696 29.9796 27.3188C29.8933 26.6521 29.6214 26.0827 28.9271 25.8963C28.2149 25.705 27.6632 26.0743 27.2611 26.611C26.667 27.4045 26.133 28.2442 25.5765 29.0665C22.655 33.3833 19.7308 37.6987 16.8194 42.0228C16.5539 42.4167 16.3195 42.8493 16.1623 43.2971C15.7986 44.3335 16.3539 45.3997 17.4056 45.6837C17.859 45.8063 18.3437 45.8516 18.8152 45.8566C20.5556 45.8749 22.2965 45.8772 24.0369 45.8498C24.52 45.8422 24.6487 46.0071 24.6426 46.4782C24.6193 48.2551 24.6331 50.0326 24.6339 51.8103ZM28.1727 28.3481C28.2252 28.3633 28.278 28.3785 28.3307 28.394C28.3307 28.6039 28.3307 28.8141 28.3307 29.024C28.331 32.3795 28.3284 35.7345 28.3329 39.0899C28.3341 40.0032 28.6097 40.2718 29.5164 40.272C31.5196 40.2728 33.5227 40.2681 35.5259 40.2693C35.7382 40.2696 35.9539 40.2748 36.1625 40.3116C36.5403 40.3782 36.6643 40.6123 36.4957 40.9628C36.374 41.2156 36.2278 41.4581 36.0741 41.6926C32.99 46.3987 29.9037 51.1035 26.8161 55.8072C26.725 55.9458 26.6142 56.0712 26.5125 56.2029C26.4672 56.1854 26.4219 56.1678 26.3765 56.1506C26.3765 55.9595 26.3765 55.7686 26.3765 55.5773C26.3765 52.1723 26.3778 48.7671 26.3755 45.3621C26.3746 44.3996 26.0897 44.1125 25.1405 44.1106C23.0717 44.1065 21.0028 44.1166 18.9341 44.0958C18.5758 44.0924 18.2181 43.967 17.86 43.8981C18.0145 43.5783 18.1328 43.2337 18.3284 42.9419C21.4817 38.2425 24.6446 33.5496 27.8062 28.8558C27.9231 28.6829 28.0503 28.5172 28.1727 28.3481Z" fill="white"></path>
    <path fill-rule="evenodd" clip-rule="evenodd" d="M28.1718 28.3481C28.0496 28.5172 27.9222 28.6829 27.8055 28.8558C24.6439 33.5495 21.481 38.2424 18.3278 42.9419C18.1322 43.2336 18.0139 43.5782 17.8594 43.898C18.2174 43.967 18.5751 44.0924 18.9335 44.0957C21.0022 44.1165 23.0711 44.1064 25.1399 44.1105C26.089 44.1124 26.374 44.3996 26.3748 45.362C26.3771 48.7671 26.3759 52.1722 26.3759 55.5772C26.3759 55.7685 26.3759 55.9594 26.3759 56.1505C26.4212 56.1677 26.4665 56.1854 26.5119 56.2028C26.6135 56.0711 26.7243 55.9458 26.8155 55.8071C29.9031 51.1034 32.9894 46.3986 36.0735 41.6926C36.2272 41.458 36.3733 41.2155 36.495 40.9627C36.6638 40.6122 36.5397 40.3782 36.1619 40.3116C35.9533 40.2748 35.7375 40.2695 35.5252 40.2692C33.522 40.268 31.5189 40.2728 29.5157 40.2719C28.6091 40.2718 28.3335 40.0031 28.3323 39.0898C28.3278 35.7344 28.3303 32.3794 28.33 29.0239C28.33 28.814 28.33 28.6039 28.33 28.3939C28.2772 28.3785 28.2243 28.3633 28.1718 28.3481Z" fill="#212121"></path>
  </g>
</svg>
