<svg width="343" height="89" viewBox="0 0 343 89" fill="none" xmlns="http://www.w3.org/2000/svg">
<path d="M15.3922 69.9263C16.2802 69.5326 17.1631 69.1159 18.0463 68.7051C20.9889 67.3294 23.8311 65.6766 26.5451 63.7634L26.5451 63.7178L26.5694 63.7634C29.4162 61.7215 32.0961 59.3775 34.5756 56.7614C36.5906 54.5359 38.4056 51.8538 39.3616 48.772C40.3156 45.6659 40.1967 42.2472 39.0299 39.242C36.6295 32.8903 31.3214 28.8788 26.55 25.2036L26.4866 25.3177L26.5451 25.1978C26.2183 24.9637 25.8915 24.7299 25.5694 24.5015C22.6229 22.5612 19.5551 20.8845 16.3925 19.4856C15.7094 19.1718 15.0166 18.8636 14.3189 18.5896C13.9335 18.4355 13.1773 18.0189 12.8553 18.4184C12.5333 18.8178 12.9041 19.4056 13.2407 19.7024C14.5433 20.8437 15.8898 21.8481 16.9877 23.2691C18.0854 24.69 18.9783 26.3565 18.9099 28.3022C18.8466 30.1226 17.9342 31.7661 16.8853 33.0445C14.6362 35.7438 11.7625 37.6499 8.89898 39.2418C7.46468 40.0522 6.01562 40.8282 4.53249 41.5243C3.6983 41.9067 2.8591 42.2777 2.02973 42.6657C1.41007 42.9682 -1.10341e-06 43.4932 -1.14732e-06 44.4976C-1.17227e-06 45.0684 0.58549 45.5078 0.975741 45.7474C2.2833 46.5976 3.79573 47.0771 5.17137 47.7733C6.77159 48.5778 8.3572 49.3939 9.90874 50.3184C12.6701 51.9676 15.7147 53.9649 17.5926 56.9381C18.5684 58.4732 19.1637 60.2652 18.7441 62.1768C18.3245 64.0885 17.2316 65.538 16.0462 66.7879C15.4405 67.3877 14.807 67.9476 14.1483 68.4654C13.8117 68.7507 13.4604 69.0361 13.1286 69.3214C12.797 69.6067 12.3628 70.6397 13.1726 70.7482C13.8507 70.788 14.7871 70.1774 15.3922 69.9263Z" fill="#051320"/>
<path d="M71.92 70C70.8 70 69.8667 69.6533 69.12 68.96C68.3733 68.2133 68 67.3067 68 66.24V11.28C68 10.16 68.3467 9.25333 69.04 8.56C69.7867 7.86667 70.6933 7.52 71.76 7.52H91.04C94.4533 7.52 97.4933 8.21333 100.16 9.6C102.88 10.9867 105.013 12.9067 106.56 15.36C108.107 17.8133 108.88 20.64 108.88 23.84C108.88 26.56 108.133 29.0133 106.64 31.2C105.2 33.3333 103.253 34.9867 100.8 36.16C104.32 37.0667 107.147 38.8 109.28 41.36C111.467 43.92 112.56 47.2267 112.56 51.28C112.56 54.96 111.707 58.2133 110 61.04C108.293 63.8133 105.92 66 102.88 67.6C99.8933 69.2 96.4533 70 92.56 70H71.92ZM75.52 62.96H92.56C95.0667 62.96 97.2533 62.5067 99.12 61.6C101.04 60.6933 102.533 59.3867 103.6 57.68C104.72 55.92 105.28 53.7867 105.28 51.28C105.28 48.9333 104.72 46.96 103.6 45.36C102.533 43.76 101.04 42.5333 99.12 41.68C97.2533 40.8267 95.0667 40.4 92.56 40.4H75.52V62.96ZM75.52 33.36H91.04C94.1333 33.36 96.6667 32.56 98.64 30.96C100.667 29.3067 101.68 26.9333 101.68 23.84C101.68 20.7467 100.667 18.4267 98.64 16.88C96.6667 15.3333 94.1333 14.56 91.04 14.56H75.52V33.36ZM124.313 42.8C124.42 39.5467 125.246 36.64 126.793 34.08C128.393 31.52 130.5 29.4933 133.113 28C135.726 26.5067 138.606 25.76 141.753 25.76C144.686 25.76 146.873 26.2133 148.313 27.12C149.806 28.0267 150.366 29.1733 149.993 30.56C149.833 31.36 149.513 31.9467 149.033 32.32C148.553 32.64 147.993 32.8267 147.353 32.88C146.713 32.88 146.02 32.8267 145.273 32.72C142.02 32.1867 139.113 32.2667 136.553 32.96C133.993 33.6533 131.966 34.8533 130.473 36.56C128.98 38.2667 128.233 40.3467 128.233 42.8H124.313ZM124.553 70C123.433 70 122.553 69.7067 121.913 69.12C121.273 68.48 120.953 67.5733 120.953 66.4V29.84C120.953 28.72 121.273 27.84 121.913 27.2C122.553 26.56 123.433 26.24 124.553 26.24C125.78 26.24 126.686 26.56 127.273 27.2C127.913 27.7867 128.233 28.6667 128.233 29.84V66.4C128.233 67.52 127.913 68.4 127.273 69.04C126.686 69.68 125.78 70 124.553 70ZM160.442 70C159.322 70 158.415 69.6533 157.722 68.96C157.029 68.2667 156.682 67.3867 156.682 66.32V29.92C156.682 28.8 157.029 27.92 157.722 27.28C158.415 26.5867 159.322 26.24 160.442 26.24C161.509 26.24 162.389 26.5867 163.082 27.28C163.775 27.92 164.122 28.8 164.122 29.92V66.32C164.122 67.3867 163.775 68.2667 163.082 68.96C162.389 69.6533 161.509 70 160.442 70ZM160.362 18.64C159.029 18.64 157.882 18.16 156.922 17.2C155.962 16.24 155.482 15.0667 155.482 13.68C155.482 12.2933 155.962 11.1467 156.922 10.24C157.935 9.28 159.109 8.8 160.442 8.8C161.722 8.8 162.842 9.28 163.802 10.24C164.815 11.1467 165.322 12.2933 165.322 13.68C165.322 15.0667 164.842 16.24 163.882 17.2C162.922 18.16 161.749 18.64 160.362 18.64ZM213.472 70.08C212.405 70.08 211.499 69.7333 210.752 69.04C210.059 68.2933 209.712 67.4133 209.712 66.4V46.24C209.712 43.0933 209.125 40.5333 207.952 38.56C206.779 36.5333 205.205 35.04 203.232 34.08C201.259 33.0667 198.992 32.56 196.432 32.56C194.032 32.56 191.872 33.04 189.952 34C188.032 34.96 186.485 36.24 185.312 37.84C184.192 39.44 183.632 41.28 183.632 43.36H178.832C178.885 40 179.739 37.0133 181.392 34.4C183.045 31.7333 185.285 29.6533 188.112 28.16C190.939 26.6133 194.112 25.84 197.632 25.84C201.365 25.84 204.699 26.64 207.632 28.24C210.565 29.7867 212.885 32.08 214.592 35.12C216.299 38.16 217.152 41.8667 217.152 46.24V66.4C217.152 67.4133 216.779 68.2933 216.032 69.04C215.339 69.7333 214.485 70.08 213.472 70.08ZM179.952 70.08C178.885 70.08 178.005 69.7333 177.312 69.04C176.619 68.3467 176.272 67.4667 176.272 66.4V29.92C176.272 28.8 176.619 27.92 177.312 27.28C178.005 26.5867 178.885 26.24 179.952 26.24C181.072 26.24 181.952 26.5867 182.592 27.28C183.285 27.92 183.632 28.8 183.632 29.92V66.4C183.632 67.4667 183.285 68.3467 182.592 69.04C181.952 69.7333 181.072 70.08 179.952 70.08ZM246.087 70.32C241.98 70.32 238.354 69.3867 235.207 67.52C232.114 65.6 229.66 62.9867 227.847 59.68C226.087 56.32 225.207 52.48 225.207 48.16C225.207 43.7867 226.14 39.9467 228.007 36.64C229.927 33.28 232.54 30.6667 235.847 28.8C239.207 26.88 243.02 25.92 247.287 25.92C251.607 25.92 255.42 26.88 258.727 28.8C262.034 30.6667 264.62 33.28 266.487 36.64C268.407 39.9467 269.394 43.7867 269.447 48.16L265.127 48.88C265.127 53.0933 264.3 56.8267 262.647 60.08C261.047 63.28 258.807 65.7867 255.927 67.6C253.047 69.4133 249.767 70.32 246.087 70.32ZM247.287 87.84C243.34 87.84 239.714 87.0667 236.407 85.52C233.154 84.0267 230.434 81.8667 228.247 79.04C227.607 78.24 227.34 77.3867 227.447 76.48C227.607 75.6267 228.087 74.9333 228.887 74.4C229.74 73.8133 230.647 73.6 231.607 73.76C232.567 73.9733 233.34 74.4533 233.927 75.2C235.42 77.0667 237.287 78.5333 239.527 79.6C241.82 80.6667 244.46 81.2 247.447 81.2C250.167 81.2 252.647 80.5333 254.887 79.2C257.127 77.92 258.914 76.0267 260.247 73.52C261.58 71.0667 262.247 68.1067 262.247 64.64V52.96L264.727 46.88L269.447 48.16V65.04C269.447 69.3067 268.487 73.1467 266.567 76.56C264.7 80.0267 262.087 82.7733 258.727 84.8C255.42 86.8267 251.607 87.84 247.287 87.84ZM247.287 63.76C250.22 63.76 252.807 63.0933 255.047 61.76C257.287 60.4267 259.047 58.5867 260.327 56.24C261.607 53.8933 262.247 51.2 262.247 48.16C262.247 45.12 261.607 42.4267 260.327 40.08C259.047 37.68 257.287 35.8133 255.047 34.48C252.807 33.1467 250.22 32.48 247.287 32.48C244.407 32.48 241.82 33.1467 239.527 34.48C237.287 35.8133 235.527 37.68 234.247 40.08C232.967 42.4267 232.327 45.12 232.327 48.16C232.327 51.2 232.967 53.8933 234.247 56.24C235.527 58.5867 237.287 60.4267 239.527 61.76C241.82 63.0933 244.407 63.76 247.287 63.76ZM283.029 70C281.909 70 281.003 69.6533 280.309 68.96C279.616 68.2667 279.269 67.3867 279.269 66.32V29.92C279.269 28.8 279.616 27.92 280.309 27.28C281.003 26.5867 281.909 26.24 283.029 26.24C284.096 26.24 284.976 26.5867 285.669 27.28C286.363 27.92 286.709 28.8 286.709 29.92V66.32C286.709 67.3867 286.363 68.2667 285.669 68.96C284.976 69.6533 284.096 70 283.029 70ZM282.949 18.64C281.616 18.64 280.469 18.16 279.509 17.2C278.549 16.24 278.069 15.0667 278.069 13.68C278.069 12.2933 278.549 11.1467 279.509 10.24C280.523 9.28 281.696 8.8 283.029 8.8C284.309 8.8 285.429 9.28 286.389 10.24C287.403 11.1467 287.909 12.2933 287.909 13.68C287.909 15.0667 287.429 16.24 286.469 17.2C285.509 18.16 284.336 18.64 282.949 18.64ZM336.059 70.08C334.993 70.08 334.086 69.7333 333.339 69.04C332.646 68.2933 332.299 67.4133 332.299 66.4V46.24C332.299 43.0933 331.713 40.5333 330.539 38.56C329.366 36.5333 327.793 35.04 325.819 34.08C323.846 33.0667 321.579 32.56 319.019 32.56C316.619 32.56 314.459 33.04 312.539 34C310.619 34.96 309.073 36.24 307.899 37.84C306.779 39.44 306.219 41.28 306.219 43.36H301.419C301.473 40 302.326 37.0133 303.979 34.4C305.633 31.7333 307.873 29.6533 310.699 28.16C313.526 26.6133 316.699 25.84 320.219 25.84C323.953 25.84 327.286 26.64 330.219 28.24C333.153 29.7867 335.473 32.08 337.179 35.12C338.886 38.16 339.739 41.8667 339.739 46.24V66.4C339.739 67.4133 339.366 68.2933 338.619 69.04C337.926 69.7333 337.073 70.08 336.059 70.08ZM302.539 70.08C301.473 70.08 300.593 69.7333 299.899 69.04C299.206 68.3467 298.859 67.4667 298.859 66.4V29.92C298.859 28.8 299.206 27.92 299.899 27.28C300.593 26.5867 301.473 26.24 302.539 26.24C303.659 26.24 304.539 26.5867 305.179 27.28C305.873 27.92 306.219 28.8 306.219 29.92V66.4C306.219 67.4667 305.873 68.3467 305.179 69.04C304.539 69.7333 303.659 70.08 302.539 70.08Z" fill="#051320"/>
</svg>
