<svg viewBox="0 0 621 180" fill="none" xmlns="http://www.w3.org/2000/svg"><g clip-path="url(#clip0_7903_145)"><path d="M74.7435 1.02393H96.073V90.5297C96.073 121.574 73.9386 140.322 48.1821 140.322C21.0171 140.322 0.0898438 119.357 0.0898438 91.1344C0.0898438 61.9039 19.8094 41.745 43.9565 41.745C55.8284 41.745 67.4995 47.1878 74.7435 56.2595V1.02393ZM74.9443 91.1344C74.9443 71.5802 61.4625 60.6944 47.578 60.6944C32.4868 60.6944 21.2179 72.9913 21.2179 91.1344C21.2179 109.277 33.0904 121.373 48.1821 121.373C62.2675 121.373 74.9443 110.285 74.9443 91.1344Z" fill="#FF9D00"></path><path d="M200.751 91.1345V138.306H182.037L180.427 123.792C173.586 134.476 161.713 140.322 149.439 140.322C124.085 140.322 104.164 120.163 104.164 91.1345C104.164 62.912 125.091 41.7451 152.659 41.7451C178.818 41.7451 200.751 59.8882 200.751 91.1345ZM179.824 91.1345C179.824 71.9835 167.147 60.6945 152.659 60.6945C137.365 60.6945 125.292 72.9914 125.292 91.1345C125.292 109.278 136.762 121.373 152.659 121.373C166.342 121.373 179.824 110.689 179.824 91.1345Z" fill="#FF9D00"></path><path d="M270.303 43.7607H293.242L241.126 178.019H217.985L234.687 137.701L198.266 43.7607H222.009L246.156 112.315L270.303 43.7607Z" fill="#FF9D00"></path><path d="M300.082 138.306V1.02393H321.211V138.306H300.082Z" fill="#FF9D00"></path><path d="M333.281 13.5225C333.281 5.86215 339.318 0.0161133 346.964 0.0161133C354.409 0.0161133 360.446 5.86215 360.446 13.5225C360.446 20.9814 354.409 26.8274 346.964 26.8274C339.318 26.8274 333.281 20.9814 333.281 13.5225ZM336.3 138.306V43.761H357.428V138.306H336.3Z" fill="#FF9D00"></path><path d="M462.462 91.3361V128.429C462.462 162.699 441.735 180.035 416.18 180.035C392.235 180.035 374.527 166.126 369.899 144.556H390.625C394.448 155.845 404.51 161.288 416.18 161.288C430.87 161.288 442.339 151.611 442.339 130.848V123.59C435.297 133.871 422.821 139.516 410.949 139.516C386.802 139.516 367.082 119.559 367.082 90.7314C367.082 62.7104 388.009 41.7451 415.375 41.7451C441.132 41.7451 462.462 60.4929 462.462 91.3361ZM442.138 90.7314C442.138 71.7819 429.461 60.6945 415.375 60.6945C400.283 60.6945 388.21 72.7899 388.21 90.7314C388.21 108.673 399.479 120.768 414.772 120.768C428.857 120.768 442.138 110.084 442.138 90.7314Z" fill="#FF9D00"></path><path d="M560.455 82.2645V138.306H539.126V86.0946C539.126 68.1533 529.065 60.896 518.601 60.896C507.132 60.896 495.461 71.3787 495.461 87.7073V138.306H474.332V1.02393H495.461V57.469C502.302 46.5832 513.772 41.745 524.839 41.745C543.955 41.745 560.455 55.05 560.455 82.2645Z" fill="#FF9D00"></path><path d="M621.087 61.501H593.318V101.819C593.318 115.93 598.952 120.768 613.44 120.768C615.05 120.768 616.459 120.768 620.483 120.567V138.105C616.056 139.113 612.032 139.718 607.404 139.718C587.281 139.718 571.988 127.421 571.988 104.238V12.7163H593.318V43.7611H621.087V61.501Z" fill="#FF9D00"></path></g><defs><clipPath id="clip0_7903_145"><rect width="621" height="180" fill="white"></rect></clipPath></defs></svg>