<svg xmlns="http://www.w3.org/2000/svg" fill="none" viewBox="0 0 95 27" height="27" width="95">
<path fill="#FF3C00" d="M17.2471 26.0087H17.2207C16.082 26.0073 14.9902 25.5292 14.185 24.6795C13.3798 23.8297 12.9268 22.6776 12.9254 21.4758V15.5661C12.9271 15.1193 12.7853 14.6851 12.5232 14.3343C12.261 13.9835 11.8938 13.7367 11.4817 13.6344L9.42253 13.1173C7.32445 12.5902 5.85861 10.8086 5.85861 8.35412V4.54739C5.85861 4.11382 5.69541 3.698 5.4049 3.39142C5.11438 3.08484 4.72037 2.9126 4.30952 2.9126C3.89868 2.9126 3.50466 3.08484 3.21415 3.39142C2.92364 3.698 2.76044 4.11382 2.76044 4.54739V21.4513C2.75506 21.6678 2.79082 21.8831 2.86559 22.0848C2.94036 22.2864 3.05264 22.4702 3.19579 22.6252C3.33894 22.7803 3.51007 22.9036 3.6991 22.9878C3.88812 23.0719 4.09119 23.1153 4.29635 23.1153C4.5015 23.1153 4.70458 23.0719 4.8936 22.9878C5.08262 22.9036 5.25375 22.7803 5.39691 22.6252C5.54007 22.4702 5.65234 22.2864 5.72711 22.0848C5.80189 21.8831 5.83764 21.6678 5.83227 21.4513V19.0403C5.82717 18.8457 5.85909 18.652 5.92615 18.4706C5.99321 18.2892 6.09403 18.1238 6.22269 17.9843C6.35133 17.8447 6.50518 17.7338 6.67514 17.658C6.8451 17.5823 7.02772 17.5433 7.21222 17.5433C7.39672 17.5433 7.57934 17.5823 7.74931 17.658C7.91927 17.7338 8.07311 17.8447 8.20175 17.9843C8.3304 18.1238 8.43123 18.2892 8.49829 18.4706C8.56535 18.652 8.59727 18.8457 8.59217 19.0403V21.4569C8.6011 22.0582 8.49658 22.6554 8.28469 23.2137C8.07282 23.772 7.75782 24.2802 7.35803 24.7088C6.95824 25.1373 6.48165 25.4777 5.95603 25.7101C5.43039 25.9424 4.86622 26.062 4.29635 26.062C3.72648 26.062 3.16231 25.9424 2.63669 25.7101C2.11105 25.4777 1.63447 25.1373 1.23468 24.7088C0.83489 24.2802 0.519883 23.772 0.308004 23.2137C0.0961245 22.6554 -0.00839769 22.0582 0.000526932 21.4569V4.55295C0.000806294 3.347 0.454882 2.19053 1.26292 1.33779C2.07095 0.485051 3.16679 0.00585556 4.30952 0.00556051C5.45049 0.00878195 6.54393 0.48815 7.35121 1.33906C8.15849 2.18996 8.61407 3.34331 8.61849 4.54739V8.35635C8.61728 8.80281 8.75929 9.23646 9.02142 9.5869C9.28363 9.93725 9.65045 10.1836 10.0623 10.2858L12.1203 10.803C14.2195 11.3301 15.6853 13.1173 15.6853 15.5661V21.4758C15.6858 21.9054 15.8478 22.3172 16.1356 22.621C16.4235 22.9247 16.8136 23.0956 17.2207 23.0961H17.2471C17.6541 23.0956 18.0443 22.9247 18.3321 22.621C18.6199 22.3172 18.7819 21.9054 18.7824 21.4758V4.54739C18.7819 4.114 18.6185 3.69852 18.3281 3.39207C18.0377 3.08562 17.644 2.91319 17.2334 2.9126H17.1754C16.7649 2.91348 16.3715 3.08604 16.0813 3.39246C15.7911 3.69888 15.6279 4.11419 15.6273 4.54739V6.85056C15.6324 7.04519 15.6005 7.23892 15.5335 7.42031C15.4664 7.6017 15.3655 7.76707 15.2369 7.90663C15.1083 8.0462 14.9544 8.15713 14.7845 8.23288C14.6145 8.30863 14.4319 8.34766 14.2474 8.34766C14.0629 8.34766 13.8802 8.30863 13.7103 8.23288C13.5404 8.15713 13.3865 8.0462 13.2578 7.90663C13.1292 7.76707 13.0284 7.6017 12.9613 7.42031C12.8943 7.23892 12.8623 7.04519 12.8674 6.85056V4.54739C12.8689 3.34199 13.3232 2.18637 14.1307 1.33392C14.9382 0.481467 16.0332 0.0017657 17.1754 0H17.2334C18.3757 0.00147157 19.4709 0.481048 20.2788 1.33353C21.0865 2.186 21.541 3.3418 21.5423 4.54739V21.4758C21.541 22.6776 21.088 23.8297 20.2827 24.6795C19.4776 25.5292 18.3858 26.0073 17.2471 26.0087Z"></path>
<path fill="white" d="M34.33 21V7.32H36.6195V13.077H43.0985V7.32H45.3785V21H43.0985V15.224H36.6195V21H34.33Z"></path>
<path fill="white" d="M51.5664 21.285C50.5277 21.285 49.6157 21.0602 48.8304 20.6105C48.0451 20.1608 47.4307 19.537 46.9874 18.739C46.5504 17.941 46.3319 17.0227 46.3319 15.984C46.3319 14.863 46.5472 13.8908 46.9779 13.0675C47.4086 12.2378 48.0071 11.595 48.7734 11.139C49.5397 10.683 50.4264 10.455 51.4334 10.455C52.4974 10.455 53.3999 10.7052 54.1409 11.2055C54.8882 11.6995 55.4424 12.3993 55.8034 13.305C56.1644 14.2107 56.3006 15.2778 56.2119 16.5065H53.9414V15.6705C53.9351 14.5558 53.7387 13.742 53.3524 13.229C52.9661 12.716 52.3581 12.4595 51.5284 12.4595C50.5911 12.4595 49.8944 12.7508 49.4384 13.3335C48.9824 13.9098 48.7544 14.7553 48.7544 15.87C48.7544 16.9087 48.9824 17.713 49.4384 18.283C49.8944 18.853 50.5594 19.138 51.4334 19.138C51.9971 19.138 52.4816 19.0145 52.8869 18.7675C53.2986 18.5142 53.6152 18.15 53.8369 17.675L56.0979 18.359C55.7052 19.2837 55.0972 20.0025 54.2739 20.5155C53.4569 21.0285 52.5544 21.285 51.5664 21.285ZM48.0324 16.5065V14.7775H55.0909V16.5065H48.0324Z"></path>
<path fill="white" d="M59.8751 21.285C59.1341 21.285 58.5071 21.1457 57.9941 20.867C57.4811 20.582 57.0916 20.2052 56.8256 19.7365C56.5659 19.2678 56.4361 18.7517 56.4361 18.188C56.4361 17.694 56.5184 17.2507 56.6831 16.858C56.8477 16.459 57.1011 16.117 57.4431 15.832C57.7851 15.5407 58.2284 15.3032 58.7731 15.1195C59.1847 14.9865 59.6661 14.8662 60.2171 14.7585C60.7744 14.6508 61.3761 14.5527 62.0221 14.464C62.6744 14.369 63.3552 14.2677 64.0646 14.16L63.2476 14.6255C63.2539 13.9162 63.0956 13.3937 62.7726 13.058C62.4496 12.7223 61.9049 12.5545 61.1386 12.5545C60.6762 12.5545 60.2297 12.6622 59.7991 12.8775C59.3684 13.0928 59.0676 13.4633 58.8966 13.989L56.8066 13.3335C57.0599 12.4658 57.5412 11.7692 58.2506 11.2435C58.9662 10.7178 59.9289 10.455 61.1386 10.455C62.0506 10.455 62.8517 10.6038 63.5421 10.9015C64.2387 11.1992 64.7549 11.6868 65.0906 12.3645C65.2742 12.7255 65.3851 13.096 65.4231 13.476C65.4611 13.8497 65.4801 14.2582 65.4801 14.7015V21H63.4756V18.777L63.8081 19.138C63.3457 19.879 62.8042 20.4237 62.1836 20.772C61.5692 21.114 60.7997 21.285 59.8751 21.285ZM60.3311 19.461C60.8504 19.461 61.2937 19.3692 61.6611 19.1855C62.0284 19.0018 62.3197 18.777 62.5351 18.511C62.7567 18.245 62.9056 17.9948 62.9816 17.7605C63.1019 17.4692 63.1684 17.1367 63.1811 16.763C63.2001 16.383 63.2096 16.0758 63.2096 15.8415L63.9126 16.0505C63.2222 16.1582 62.6301 16.2532 62.1361 16.3355C61.6421 16.4178 61.2177 16.497 60.8631 16.573C60.5084 16.6427 60.1949 16.7218 59.9226 16.8105C59.6566 16.9055 59.4317 17.0163 59.2481 17.143C59.0644 17.2697 58.9219 17.4153 58.8206 17.58C58.7256 17.7447 58.6781 17.9378 58.6781 18.1595C58.6781 18.4128 58.7414 18.6377 58.8681 18.834C58.9947 19.024 59.1784 19.176 59.4191 19.29C59.6661 19.404 59.9701 19.461 60.3311 19.461Z"></path>
<path fill="white" d="M72.8268 21C72.1492 21.1267 71.4842 21.1805 70.8318 21.1615C70.1858 21.1488 69.6063 21.0317 69.0933 20.81C68.5803 20.582 68.1908 20.2242 67.9248 19.7365C67.6905 19.2932 67.567 18.8403 67.5543 18.378C67.5417 17.9157 67.5353 17.3932 67.5353 16.8105V7.89H69.8153V16.6775C69.8153 17.0892 69.8185 17.4502 69.8248 17.7605C69.8375 18.0708 69.904 18.3242 70.0243 18.5205C70.2523 18.9005 70.6165 19.1127 71.1168 19.157C71.6172 19.2013 72.1872 19.176 72.8268 19.081V21ZM65.6733 12.5355V10.74H72.8268V12.5355H65.6733Z"></path>
<path fill="white" d="M78.8235 21.285C77.8229 21.285 76.9837 21.0475 76.306 20.5725C75.6284 20.0975 75.1185 19.4515 74.7765 18.6345C74.4345 17.8112 74.2635 16.8897 74.2635 15.87C74.2635 14.8377 74.4345 13.913 74.7765 13.096C75.1185 12.279 75.6189 11.6362 76.2775 11.1675C76.9425 10.6925 77.7627 10.455 78.738 10.455C79.707 10.455 80.5462 10.6925 81.2555 11.1675C81.9712 11.6362 82.5254 12.279 82.918 13.096C83.3107 13.9067 83.507 14.8313 83.507 15.87C83.507 16.896 83.3139 17.8175 82.9275 18.6345C82.5412 19.4515 81.9965 20.0975 81.2935 20.5725C80.5905 21.0475 79.7672 21.285 78.8235 21.285ZM73.874 21V7.32H76.1825V13.799H75.8975V21H73.874ZM78.472 19.233C79.0674 19.233 79.5582 19.0842 79.9445 18.7865C80.3309 18.4888 80.6159 18.0867 80.7995 17.58C80.9895 17.067 81.0845 16.497 81.0845 15.87C81.0845 15.2493 80.9895 14.6857 80.7995 14.179C80.6095 13.666 80.315 13.2607 79.916 12.963C79.517 12.659 79.0104 12.507 78.396 12.507C77.8134 12.507 77.3384 12.6495 76.971 12.9345C76.6037 13.2132 76.3314 13.6058 76.154 14.1125C75.983 14.6128 75.8975 15.1987 75.8975 15.87C75.8975 16.535 75.983 17.1208 76.154 17.6275C76.3314 18.1342 76.6069 18.53 76.9805 18.815C77.3605 19.0937 77.8577 19.233 78.472 19.233Z"></path>
<path fill="white" d="M84.6511 9.182V7.0825H86.9406V9.182H84.6511ZM84.6511 21V10.74H86.9406V21H84.6511Z"></path>
<path fill="white" d="M94.6598 21C93.9821 21.1267 93.3171 21.1805 92.6647 21.1615C92.0187 21.1488 91.4392 21.0317 90.9262 20.81C90.4132 20.582 90.0238 20.2242 89.7578 19.7365C89.5234 19.2932 89.3999 18.8403 89.3873 18.378C89.3746 17.9157 89.3682 17.3932 89.3682 16.8105V7.89H91.6482V16.6775C91.6482 17.0892 91.6514 17.4502 91.6578 17.7605C91.6704 18.0708 91.7369 18.3242 91.8572 18.5205C92.0852 18.9005 92.4494 19.1127 92.9498 19.157C93.4501 19.2013 94.0201 19.176 94.6598 19.081V21ZM87.5062 12.5355V10.74H94.6598V12.5355H87.5062Z"></path>
</svg>
